%
M48
M72
T01C0.01969
T02C0.02362
T03C0.03150
T04C0.03346
T05C0.03500
T06C0.03543
T07C0.04000
T08C0.04724
T09C0.05500
%
T01
X92595Y33500
X114295Y23900
X116795Y31400
X125195Y49000
X129295Y53900
X129295Y63900
X144295Y48900
X154295Y63900
X179295Y63900
X194295Y58900
X191795Y41400
X201795Y41400
X209295Y48900
X216895Y55600
X224495Y50400
X228995Y48400
X233895Y48400
X238695Y48500
X243595Y48400
X264795Y34500
X243195Y25500
X243195Y8000
X224195Y7300
X219295Y9000
X214795Y7200
X201795Y16400
X196195Y11500
X192895Y16400
X194295Y23900
X181795Y23900
X171795Y15500
X169495Y29100
X156795Y16400
X114295Y103900
X154595Y146500
X158595Y179500
X196195Y214000
X192895Y218900
X194295Y226400
X201795Y218900
X214795Y209700
X219295Y211500
X224195Y209800
X243195Y210500
X243195Y228000
X243595Y250900
X238695Y251000
X233895Y250900
X228995Y250900
X224495Y252900
X216895Y258100
X209295Y251400
X201795Y243900
X191795Y243900
X194295Y261400
X179295Y266400
X154295Y266400
X144295Y251400
X129295Y256400
X125195Y251500
X129295Y266400
X116795Y233900
X114295Y226400
X92595Y236000
X99595Y176500
X156795Y218900
X171795Y218000
X181795Y226400
X169495Y231600
X114295Y306400
X154595Y349000
X158595Y382000
X99595Y379000
X264595Y349000
X284595Y349000
X314195Y256500
X299195Y247400
X290295Y247200
X264795Y237000
X264595Y209000
X264595Y146500
X284595Y146500
X314195Y54000
X299195Y44900
X290295Y44700
X334495Y47700
X264595Y6500
X334495Y250200
T02
X344295Y246600
X354295Y251400
X369295Y251400
X369295Y266400
X404295Y266400
X394295Y231400
X354295Y183900
X334295Y178900
X379295Y173900
X379295Y153900
X406795Y173900
X409295Y140900
X410195Y128900
X379295Y123900
X354295Y123900
X369295Y63900
X369295Y48900
X354295Y48900
X344295Y44100
X339395Y32800
X314295Y63900
X289295Y63900
X244495Y64000
X239295Y63900
X233995Y64000
X74295Y58900
X69295Y63900
X59295Y33900
X59295Y236400
X74295Y261400
X69295Y266400
X233995Y266500
X239295Y266400
X244495Y266500
X289295Y266400
X314295Y266400
X339395Y235300
X354295Y326400
X379295Y326400
X410195Y331400
X409295Y343400
X379295Y356400
X379295Y376400
X354295Y386400
X334295Y381400
X406795Y376400
X404295Y63900
X394295Y28900
T03
X252602Y91774
X252602Y99648
X252602Y107522
X252602Y115396
X252602Y123270
X252602Y131144
X252602Y139018
X252602Y146892
X252602Y154766
X252602Y162640
X165988Y162640
X165988Y154766
X165988Y146892
X165988Y139018
X165988Y131144
X165988Y123270
X165988Y115396
X165988Y107522
X165988Y99648
X165988Y91774
X165988Y294274
X165988Y302148
X165988Y310022
X165988Y317896
X165988Y325770
X165988Y333644
X165988Y341518
X165988Y349392
X165988Y357266
X165988Y365140
X252602Y365140
X252602Y357266
X252602Y349392
X252602Y341518
X252602Y333644
X252602Y325770
X252602Y317896
X252602Y310022
X252602Y302148
X252602Y294274
T04
X42957Y16420
X42957Y31380
X42957Y218920
X42957Y233880
T05
X84295Y158900
X94295Y158900
X104295Y158900
X134295Y128900
X134295Y118900
X134295Y108900
X134295Y311400
X134295Y321400
X134295Y331400
X104295Y361400
X94295Y361400
X84295Y361400
T06
X81795Y291400
X81795Y271400
X106795Y271400
X106795Y291400
X106795Y88900
X106795Y68900
X81795Y68900
X81795Y88900
T07
X34295Y68900
X34295Y58900
X44295Y183900
X54295Y183900
X64295Y183900
X134295Y188900
X144295Y188900
X179295Y168900
X179295Y158900
X179295Y148900
X179295Y138900
X179295Y128900
X179295Y118900
X179295Y108900
X179295Y98900
X179295Y88900
X179295Y78900
X239295Y78900
X239295Y88900
X239295Y98900
X239295Y108900
X239295Y118900
X239295Y128900
X239295Y138900
X239295Y148900
X239295Y158900
X239295Y168900
X284295Y188900
X294295Y188900
X289295Y211400
X299295Y211400
X364295Y188900
X374295Y188900
X354295Y98900
X354295Y88900
X344295Y88900
X334295Y88900
X334295Y98900
X344295Y98900
X299295Y8900
X289295Y8900
X34295Y261400
X34295Y271400
X44295Y386400
X54295Y386400
X64295Y386400
X134295Y391400
X144295Y391400
X179295Y371400
X179295Y361400
X179295Y351400
X179295Y341400
X179295Y331400
X179295Y321400
X179295Y311400
X179295Y301400
X179295Y291400
X179295Y281400
X239295Y281400
X239295Y291400
X239295Y301400
X239295Y311400
X239295Y321400
X239295Y331400
X239295Y341400
X239295Y351400
X239295Y361400
X239295Y371400
X284295Y391400
X294295Y391400
X364295Y391400
X374295Y391400
X354295Y301400
X354295Y291400
X344295Y291400
X334295Y291400
X334295Y301400
X344295Y301400
T08
X367189Y306243
X367189Y286557
X368901Y241243
X368901Y221557
X319689Y221557
X319689Y241243
X313901Y286557
X313901Y306243
X314689Y346557
X314689Y366243
X363901Y366243
X363901Y346557
X416401Y306243
X416401Y286557
X363901Y163743
X363901Y144057
X367189Y103743
X367189Y84057
X416401Y84057
X416401Y103743
X368901Y38743
X368901Y19057
X319689Y19057
X319689Y38743
X313901Y84057
X313901Y103743
X314689Y144057
X314689Y163743
X264689Y103743
X264689Y84057
X264689Y286557
X264689Y306243
T09
X124295Y295150
X124295Y347650
X64295Y347650
X64295Y295150
X64295Y145150
X64295Y92650
X124295Y92650
X124295Y145150
M30
