%
M48
M72
T01C0.01969
T02C0.02362
T03C0.03150
T04C0.03346
T05C0.03500
T06C0.03543
T07C0.04000
T08C0.04724
T09C0.05500
%
T01
X80346Y33500
X102046Y23900
X104546Y31400
X112946Y49000
X117046Y53900
X117046Y63900
X132046Y48900
X142046Y63900
X167046Y63900
X182046Y58900
X197046Y48900
X204646Y55600
X212246Y50400
X216746Y48400
X221646Y48400
X226446Y48500
X231346Y48400
X230946Y25500
X230946Y8000
X211946Y7300
X207046Y9000
X202546Y7200
X189546Y16400
X183946Y11500
X180646Y16400
X182046Y23900
X169546Y23900
X157246Y29100
X159546Y15500
X144546Y16400
X179546Y41400
X189546Y41400
X252546Y34500
X278046Y44700
X286946Y44900
X301946Y54000
X322246Y47700
X252346Y6500
X252346Y146500
X272346Y146500
X251646Y201200
X230246Y202700
X211246Y202000
X206346Y203700
X201846Y201900
X188846Y211100
X183246Y206200
X179946Y211100
X181346Y218600
X168846Y218600
X158846Y210200
X156546Y223800
X143846Y211100
X146346Y179500
X142346Y146500
X102046Y103900
X87346Y176500
X101346Y218600
X103846Y226100
X112246Y243700
X116346Y248600
X116346Y258600
X131346Y243600
X141346Y258600
X166346Y258600
X181346Y253600
X178846Y236100
X188846Y236100
X196346Y243600
X203946Y250300
X211546Y245100
X216046Y243100
X220946Y243100
X225746Y243200
X230646Y243100
X251846Y229200
X230246Y220200
X277346Y239400
X286246Y239600
X301246Y248700
X321546Y242400
X271646Y341200
X251646Y341200
X145646Y374200
X141646Y341200
X101346Y298600
X79646Y228200
X86646Y371200
T02
X56346Y258600
X61346Y253600
X46346Y228600
X57046Y63900
X62046Y58900
X47046Y33900
X221746Y64000
X227046Y63900
X232246Y64000
X277046Y63900
X302046Y63900
X332046Y44100
X342046Y48900
X357046Y48900
X357046Y63900
X392046Y63900
X382046Y28900
X327146Y32800
X342046Y123900
X367046Y123900
X367046Y153900
X367046Y173900
X342046Y183900
X322046Y178900
X326446Y227500
X331346Y238800
X341346Y243600
X356346Y243600
X356346Y258600
X391346Y258600
X381346Y223600
X394546Y173900
X397046Y140900
X397946Y128900
X301346Y258600
X276346Y258600
X231546Y258700
X226346Y258600
X221046Y258700
X341346Y318600
X366346Y318600
X396346Y335600
X397246Y323600
X366346Y348600
X366346Y368600
X341346Y378600
X321346Y373600
X393846Y368600
T03
X239654Y357340
X239654Y349466
X239654Y341592
X239654Y333718
X239654Y325844
X239654Y317970
X239654Y310096
X239654Y302222
X239654Y294348
X239654Y286474
X153039Y286474
X153039Y294348
X153039Y302222
X153039Y310096
X153039Y317970
X153039Y325844
X153039Y333718
X153039Y341592
X153039Y349466
X153039Y357340
X153739Y162640
X153739Y154766
X153739Y146892
X153739Y139018
X153739Y131144
X153739Y123270
X153739Y115396
X153739Y107522
X153739Y99648
X153739Y91774
X240354Y91774
X240354Y99648
X240354Y107522
X240354Y115396
X240354Y123270
X240354Y131144
X240354Y139018
X240354Y146892
X240354Y154766
X240354Y162640
T04
X30708Y16420
X30708Y31380
X30008Y211120
X30008Y226080
T05
X72046Y158900
X82046Y158900
X92046Y158900
X122046Y128900
X122046Y118900
X122046Y108900
X121346Y303600
X121346Y313600
X121346Y323600
X91346Y353600
X81346Y353600
X71346Y353600
T06
X68846Y283600
X68846Y263600
X93846Y263600
X93846Y283600
X94546Y88900
X94546Y68900
X69546Y68900
X69546Y88900
T07
X22046Y68900
X22046Y58900
X32046Y183900
X42046Y183900
X52046Y183900
X122046Y188900
X132046Y188900
X167046Y168900
X167046Y158900
X167046Y148900
X167046Y138900
X167046Y128900
X167046Y118900
X167046Y108900
X167046Y98900
X167046Y88900
X167046Y78900
X227046Y78900
X227046Y88900
X227046Y98900
X227046Y108900
X227046Y118900
X227046Y128900
X227046Y138900
X227046Y148900
X227046Y158900
X227046Y168900
X272046Y188900
X282046Y188900
X286346Y203600
X276346Y203600
X226346Y273600
X226346Y283600
X226346Y293600
X226346Y303600
X226346Y313600
X226346Y323600
X226346Y333600
X226346Y343600
X226346Y353600
X226346Y363600
X271346Y383600
X281346Y383600
X351346Y383600
X361346Y383600
X341346Y293600
X331346Y293600
X321346Y293600
X321346Y283600
X331346Y283600
X341346Y283600
X352046Y188900
X362046Y188900
X342046Y98900
X332046Y98900
X322046Y98900
X322046Y88900
X332046Y88900
X342046Y88900
X287046Y8900
X277046Y8900
X21346Y253600
X21346Y263600
X31346Y378600
X41346Y378600
X51346Y378600
X121346Y383600
X131346Y383600
X166346Y363600
X166346Y353600
X166346Y343600
X166346Y333600
X166346Y323600
X166346Y313600
X166346Y303600
X166346Y293600
X166346Y283600
X166346Y273600
T08
X251740Y278757
X251740Y298443
X300953Y298443
X300953Y278757
X306740Y233443
X306740Y213757
X355953Y213757
X355953Y233443
X354240Y278757
X354240Y298443
X350953Y338757
X350953Y358443
X301740Y358443
X301740Y338757
X403453Y298443
X403453Y278757
X351653Y163743
X351653Y144057
X354940Y103743
X354940Y84057
X356653Y38743
X356653Y19057
X307440Y19057
X307440Y38743
X301653Y84057
X301653Y103743
X302440Y144057
X302440Y163743
X252440Y103743
X252440Y84057
X404153Y84057
X404153Y103743
T09
X112046Y92650
X112046Y145150
X52046Y145150
X52046Y92650
X51346Y287350
X51346Y339850
X111346Y339850
X111346Y287350
M30
