G75*
%MOIN*%
%OFA0B0*%
%FSLAX25Y25*%
%IPPOS*%
%LPD*%
%AMOC8*
5,1,8,0,0,1.08239X$1,22.5*
%
%ADD10C,0.00800*%
%ADD11C,0.00000*%
D10*
X0029295Y0001400D02*
X0029295Y0193861D01*
X0422996Y0193861D01*
X0422996Y0001400D01*
X0029295Y0001400D01*
X0029295Y0203900D02*
X0029295Y0396361D01*
X0422996Y0396361D01*
X0422996Y0203900D01*
X0029295Y0203900D01*
D11*
X0041284Y0218920D02*
X0041286Y0219001D01*
X0041292Y0219083D01*
X0041302Y0219164D01*
X0041316Y0219244D01*
X0041333Y0219323D01*
X0041355Y0219402D01*
X0041380Y0219479D01*
X0041409Y0219556D01*
X0041442Y0219630D01*
X0041479Y0219703D01*
X0041518Y0219774D01*
X0041562Y0219843D01*
X0041608Y0219910D01*
X0041658Y0219974D01*
X0041711Y0220036D01*
X0041767Y0220096D01*
X0041825Y0220152D01*
X0041887Y0220206D01*
X0041951Y0220257D01*
X0042017Y0220304D01*
X0042085Y0220348D01*
X0042156Y0220389D01*
X0042228Y0220426D01*
X0042303Y0220460D01*
X0042378Y0220490D01*
X0042456Y0220516D01*
X0042534Y0220539D01*
X0042613Y0220557D01*
X0042693Y0220572D01*
X0042774Y0220583D01*
X0042855Y0220590D01*
X0042937Y0220593D01*
X0043018Y0220592D01*
X0043099Y0220587D01*
X0043180Y0220578D01*
X0043261Y0220565D01*
X0043341Y0220548D01*
X0043419Y0220528D01*
X0043497Y0220503D01*
X0043574Y0220475D01*
X0043649Y0220443D01*
X0043722Y0220408D01*
X0043793Y0220369D01*
X0043863Y0220326D01*
X0043930Y0220281D01*
X0043996Y0220232D01*
X0044058Y0220180D01*
X0044118Y0220124D01*
X0044175Y0220066D01*
X0044230Y0220006D01*
X0044281Y0219942D01*
X0044329Y0219877D01*
X0044374Y0219809D01*
X0044416Y0219739D01*
X0044454Y0219667D01*
X0044489Y0219593D01*
X0044520Y0219518D01*
X0044547Y0219441D01*
X0044570Y0219363D01*
X0044590Y0219284D01*
X0044606Y0219204D01*
X0044618Y0219123D01*
X0044626Y0219042D01*
X0044630Y0218961D01*
X0044630Y0218879D01*
X0044626Y0218798D01*
X0044618Y0218717D01*
X0044606Y0218636D01*
X0044590Y0218556D01*
X0044570Y0218477D01*
X0044547Y0218399D01*
X0044520Y0218322D01*
X0044489Y0218247D01*
X0044454Y0218173D01*
X0044416Y0218101D01*
X0044374Y0218031D01*
X0044329Y0217963D01*
X0044281Y0217898D01*
X0044230Y0217834D01*
X0044175Y0217774D01*
X0044118Y0217716D01*
X0044058Y0217660D01*
X0043996Y0217608D01*
X0043930Y0217559D01*
X0043863Y0217514D01*
X0043794Y0217471D01*
X0043722Y0217432D01*
X0043649Y0217397D01*
X0043574Y0217365D01*
X0043497Y0217337D01*
X0043419Y0217312D01*
X0043341Y0217292D01*
X0043261Y0217275D01*
X0043180Y0217262D01*
X0043099Y0217253D01*
X0043018Y0217248D01*
X0042937Y0217247D01*
X0042855Y0217250D01*
X0042774Y0217257D01*
X0042693Y0217268D01*
X0042613Y0217283D01*
X0042534Y0217301D01*
X0042456Y0217324D01*
X0042378Y0217350D01*
X0042303Y0217380D01*
X0042228Y0217414D01*
X0042156Y0217451D01*
X0042085Y0217492D01*
X0042017Y0217536D01*
X0041951Y0217583D01*
X0041887Y0217634D01*
X0041825Y0217688D01*
X0041767Y0217744D01*
X0041711Y0217804D01*
X0041658Y0217866D01*
X0041608Y0217930D01*
X0041562Y0217997D01*
X0041518Y0218066D01*
X0041479Y0218137D01*
X0041442Y0218210D01*
X0041409Y0218284D01*
X0041380Y0218361D01*
X0041355Y0218438D01*
X0041333Y0218517D01*
X0041316Y0218596D01*
X0041302Y0218676D01*
X0041292Y0218757D01*
X0041286Y0218839D01*
X0041284Y0218920D01*
X0041284Y0233880D02*
X0041286Y0233961D01*
X0041292Y0234043D01*
X0041302Y0234124D01*
X0041316Y0234204D01*
X0041333Y0234283D01*
X0041355Y0234362D01*
X0041380Y0234439D01*
X0041409Y0234516D01*
X0041442Y0234590D01*
X0041479Y0234663D01*
X0041518Y0234734D01*
X0041562Y0234803D01*
X0041608Y0234870D01*
X0041658Y0234934D01*
X0041711Y0234996D01*
X0041767Y0235056D01*
X0041825Y0235112D01*
X0041887Y0235166D01*
X0041951Y0235217D01*
X0042017Y0235264D01*
X0042085Y0235308D01*
X0042156Y0235349D01*
X0042228Y0235386D01*
X0042303Y0235420D01*
X0042378Y0235450D01*
X0042456Y0235476D01*
X0042534Y0235499D01*
X0042613Y0235517D01*
X0042693Y0235532D01*
X0042774Y0235543D01*
X0042855Y0235550D01*
X0042937Y0235553D01*
X0043018Y0235552D01*
X0043099Y0235547D01*
X0043180Y0235538D01*
X0043261Y0235525D01*
X0043341Y0235508D01*
X0043419Y0235488D01*
X0043497Y0235463D01*
X0043574Y0235435D01*
X0043649Y0235403D01*
X0043722Y0235368D01*
X0043793Y0235329D01*
X0043863Y0235286D01*
X0043930Y0235241D01*
X0043996Y0235192D01*
X0044058Y0235140D01*
X0044118Y0235084D01*
X0044175Y0235026D01*
X0044230Y0234966D01*
X0044281Y0234902D01*
X0044329Y0234837D01*
X0044374Y0234769D01*
X0044416Y0234699D01*
X0044454Y0234627D01*
X0044489Y0234553D01*
X0044520Y0234478D01*
X0044547Y0234401D01*
X0044570Y0234323D01*
X0044590Y0234244D01*
X0044606Y0234164D01*
X0044618Y0234083D01*
X0044626Y0234002D01*
X0044630Y0233921D01*
X0044630Y0233839D01*
X0044626Y0233758D01*
X0044618Y0233677D01*
X0044606Y0233596D01*
X0044590Y0233516D01*
X0044570Y0233437D01*
X0044547Y0233359D01*
X0044520Y0233282D01*
X0044489Y0233207D01*
X0044454Y0233133D01*
X0044416Y0233061D01*
X0044374Y0232991D01*
X0044329Y0232923D01*
X0044281Y0232858D01*
X0044230Y0232794D01*
X0044175Y0232734D01*
X0044118Y0232676D01*
X0044058Y0232620D01*
X0043996Y0232568D01*
X0043930Y0232519D01*
X0043863Y0232474D01*
X0043794Y0232431D01*
X0043722Y0232392D01*
X0043649Y0232357D01*
X0043574Y0232325D01*
X0043497Y0232297D01*
X0043419Y0232272D01*
X0043341Y0232252D01*
X0043261Y0232235D01*
X0043180Y0232222D01*
X0043099Y0232213D01*
X0043018Y0232208D01*
X0042937Y0232207D01*
X0042855Y0232210D01*
X0042774Y0232217D01*
X0042693Y0232228D01*
X0042613Y0232243D01*
X0042534Y0232261D01*
X0042456Y0232284D01*
X0042378Y0232310D01*
X0042303Y0232340D01*
X0042228Y0232374D01*
X0042156Y0232411D01*
X0042085Y0232452D01*
X0042017Y0232496D01*
X0041951Y0232543D01*
X0041887Y0232594D01*
X0041825Y0232648D01*
X0041767Y0232704D01*
X0041711Y0232764D01*
X0041658Y0232826D01*
X0041608Y0232890D01*
X0041562Y0232957D01*
X0041518Y0233026D01*
X0041479Y0233097D01*
X0041442Y0233170D01*
X0041409Y0233244D01*
X0041380Y0233321D01*
X0041355Y0233398D01*
X0041333Y0233477D01*
X0041316Y0233556D01*
X0041302Y0233636D01*
X0041292Y0233717D01*
X0041286Y0233799D01*
X0041284Y0233880D01*
X0041284Y0031380D02*
X0041286Y0031461D01*
X0041292Y0031543D01*
X0041302Y0031624D01*
X0041316Y0031704D01*
X0041333Y0031783D01*
X0041355Y0031862D01*
X0041380Y0031939D01*
X0041409Y0032016D01*
X0041442Y0032090D01*
X0041479Y0032163D01*
X0041518Y0032234D01*
X0041562Y0032303D01*
X0041608Y0032370D01*
X0041658Y0032434D01*
X0041711Y0032496D01*
X0041767Y0032556D01*
X0041825Y0032612D01*
X0041887Y0032666D01*
X0041951Y0032717D01*
X0042017Y0032764D01*
X0042085Y0032808D01*
X0042156Y0032849D01*
X0042228Y0032886D01*
X0042303Y0032920D01*
X0042378Y0032950D01*
X0042456Y0032976D01*
X0042534Y0032999D01*
X0042613Y0033017D01*
X0042693Y0033032D01*
X0042774Y0033043D01*
X0042855Y0033050D01*
X0042937Y0033053D01*
X0043018Y0033052D01*
X0043099Y0033047D01*
X0043180Y0033038D01*
X0043261Y0033025D01*
X0043341Y0033008D01*
X0043419Y0032988D01*
X0043497Y0032963D01*
X0043574Y0032935D01*
X0043649Y0032903D01*
X0043722Y0032868D01*
X0043793Y0032829D01*
X0043863Y0032786D01*
X0043930Y0032741D01*
X0043996Y0032692D01*
X0044058Y0032640D01*
X0044118Y0032584D01*
X0044175Y0032526D01*
X0044230Y0032466D01*
X0044281Y0032402D01*
X0044329Y0032337D01*
X0044374Y0032269D01*
X0044416Y0032199D01*
X0044454Y0032127D01*
X0044489Y0032053D01*
X0044520Y0031978D01*
X0044547Y0031901D01*
X0044570Y0031823D01*
X0044590Y0031744D01*
X0044606Y0031664D01*
X0044618Y0031583D01*
X0044626Y0031502D01*
X0044630Y0031421D01*
X0044630Y0031339D01*
X0044626Y0031258D01*
X0044618Y0031177D01*
X0044606Y0031096D01*
X0044590Y0031016D01*
X0044570Y0030937D01*
X0044547Y0030859D01*
X0044520Y0030782D01*
X0044489Y0030707D01*
X0044454Y0030633D01*
X0044416Y0030561D01*
X0044374Y0030491D01*
X0044329Y0030423D01*
X0044281Y0030358D01*
X0044230Y0030294D01*
X0044175Y0030234D01*
X0044118Y0030176D01*
X0044058Y0030120D01*
X0043996Y0030068D01*
X0043930Y0030019D01*
X0043863Y0029974D01*
X0043794Y0029931D01*
X0043722Y0029892D01*
X0043649Y0029857D01*
X0043574Y0029825D01*
X0043497Y0029797D01*
X0043419Y0029772D01*
X0043341Y0029752D01*
X0043261Y0029735D01*
X0043180Y0029722D01*
X0043099Y0029713D01*
X0043018Y0029708D01*
X0042937Y0029707D01*
X0042855Y0029710D01*
X0042774Y0029717D01*
X0042693Y0029728D01*
X0042613Y0029743D01*
X0042534Y0029761D01*
X0042456Y0029784D01*
X0042378Y0029810D01*
X0042303Y0029840D01*
X0042228Y0029874D01*
X0042156Y0029911D01*
X0042085Y0029952D01*
X0042017Y0029996D01*
X0041951Y0030043D01*
X0041887Y0030094D01*
X0041825Y0030148D01*
X0041767Y0030204D01*
X0041711Y0030264D01*
X0041658Y0030326D01*
X0041608Y0030390D01*
X0041562Y0030457D01*
X0041518Y0030526D01*
X0041479Y0030597D01*
X0041442Y0030670D01*
X0041409Y0030744D01*
X0041380Y0030821D01*
X0041355Y0030898D01*
X0041333Y0030977D01*
X0041316Y0031056D01*
X0041302Y0031136D01*
X0041292Y0031217D01*
X0041286Y0031299D01*
X0041284Y0031380D01*
X0041284Y0016420D02*
X0041286Y0016501D01*
X0041292Y0016583D01*
X0041302Y0016664D01*
X0041316Y0016744D01*
X0041333Y0016823D01*
X0041355Y0016902D01*
X0041380Y0016979D01*
X0041409Y0017056D01*
X0041442Y0017130D01*
X0041479Y0017203D01*
X0041518Y0017274D01*
X0041562Y0017343D01*
X0041608Y0017410D01*
X0041658Y0017474D01*
X0041711Y0017536D01*
X0041767Y0017596D01*
X0041825Y0017652D01*
X0041887Y0017706D01*
X0041951Y0017757D01*
X0042017Y0017804D01*
X0042085Y0017848D01*
X0042156Y0017889D01*
X0042228Y0017926D01*
X0042303Y0017960D01*
X0042378Y0017990D01*
X0042456Y0018016D01*
X0042534Y0018039D01*
X0042613Y0018057D01*
X0042693Y0018072D01*
X0042774Y0018083D01*
X0042855Y0018090D01*
X0042937Y0018093D01*
X0043018Y0018092D01*
X0043099Y0018087D01*
X0043180Y0018078D01*
X0043261Y0018065D01*
X0043341Y0018048D01*
X0043419Y0018028D01*
X0043497Y0018003D01*
X0043574Y0017975D01*
X0043649Y0017943D01*
X0043722Y0017908D01*
X0043793Y0017869D01*
X0043863Y0017826D01*
X0043930Y0017781D01*
X0043996Y0017732D01*
X0044058Y0017680D01*
X0044118Y0017624D01*
X0044175Y0017566D01*
X0044230Y0017506D01*
X0044281Y0017442D01*
X0044329Y0017377D01*
X0044374Y0017309D01*
X0044416Y0017239D01*
X0044454Y0017167D01*
X0044489Y0017093D01*
X0044520Y0017018D01*
X0044547Y0016941D01*
X0044570Y0016863D01*
X0044590Y0016784D01*
X0044606Y0016704D01*
X0044618Y0016623D01*
X0044626Y0016542D01*
X0044630Y0016461D01*
X0044630Y0016379D01*
X0044626Y0016298D01*
X0044618Y0016217D01*
X0044606Y0016136D01*
X0044590Y0016056D01*
X0044570Y0015977D01*
X0044547Y0015899D01*
X0044520Y0015822D01*
X0044489Y0015747D01*
X0044454Y0015673D01*
X0044416Y0015601D01*
X0044374Y0015531D01*
X0044329Y0015463D01*
X0044281Y0015398D01*
X0044230Y0015334D01*
X0044175Y0015274D01*
X0044118Y0015216D01*
X0044058Y0015160D01*
X0043996Y0015108D01*
X0043930Y0015059D01*
X0043863Y0015014D01*
X0043794Y0014971D01*
X0043722Y0014932D01*
X0043649Y0014897D01*
X0043574Y0014865D01*
X0043497Y0014837D01*
X0043419Y0014812D01*
X0043341Y0014792D01*
X0043261Y0014775D01*
X0043180Y0014762D01*
X0043099Y0014753D01*
X0043018Y0014748D01*
X0042937Y0014747D01*
X0042855Y0014750D01*
X0042774Y0014757D01*
X0042693Y0014768D01*
X0042613Y0014783D01*
X0042534Y0014801D01*
X0042456Y0014824D01*
X0042378Y0014850D01*
X0042303Y0014880D01*
X0042228Y0014914D01*
X0042156Y0014951D01*
X0042085Y0014992D01*
X0042017Y0015036D01*
X0041951Y0015083D01*
X0041887Y0015134D01*
X0041825Y0015188D01*
X0041767Y0015244D01*
X0041711Y0015304D01*
X0041658Y0015366D01*
X0041608Y0015430D01*
X0041562Y0015497D01*
X0041518Y0015566D01*
X0041479Y0015637D01*
X0041442Y0015710D01*
X0041409Y0015784D01*
X0041380Y0015861D01*
X0041355Y0015938D01*
X0041333Y0016017D01*
X0041316Y0016096D01*
X0041302Y0016176D01*
X0041292Y0016257D01*
X0041286Y0016339D01*
X0041284Y0016420D01*
M02*
