G75*
%MOIN*%
%OFA0B0*%
%FSLAX25Y25*%
%IPPOS*%
%LPD*%
%AMOC8*
5,1,8,0,0,1.08239X$1,22.5*
%
%ADD10C,0.08200*%
%ADD11OC8,0.08200*%
%ADD12C,0.06800*%
%ADD13C,0.09800*%
%ADD14C,0.07800*%
%ADD15C,0.04146*%
%ADD16C,0.09300*%
%ADD17C,0.05162*%
D10*
X0022046Y0058900D03*
X0022046Y0068900D03*
X0032046Y0183900D03*
X0042046Y0183900D03*
X0052046Y0183900D03*
X0122046Y0188900D03*
X0132046Y0188900D03*
X0167046Y0168900D03*
X0167046Y0158900D03*
X0167046Y0148900D03*
X0167046Y0138900D03*
X0167046Y0128900D03*
X0167046Y0118900D03*
X0167046Y0108900D03*
X0167046Y0098900D03*
X0167046Y0088900D03*
X0167046Y0078900D03*
X0227046Y0078900D03*
X0227046Y0088900D03*
X0227046Y0098900D03*
X0227046Y0108900D03*
X0227046Y0118900D03*
X0227046Y0128900D03*
X0227046Y0138900D03*
X0227046Y0148900D03*
X0227046Y0158900D03*
X0227046Y0168900D03*
X0272046Y0188900D03*
X0282046Y0188900D03*
X0286346Y0203600D03*
X0276346Y0203600D03*
X0226346Y0273600D03*
X0226346Y0283600D03*
X0226346Y0293600D03*
X0226346Y0303600D03*
X0226346Y0313600D03*
X0226346Y0323600D03*
X0226346Y0333600D03*
X0226346Y0343600D03*
X0226346Y0353600D03*
X0226346Y0363600D03*
X0271346Y0383600D03*
X0281346Y0383600D03*
X0351346Y0383600D03*
X0361346Y0383600D03*
X0166346Y0363600D03*
X0166346Y0353600D03*
X0166346Y0343600D03*
X0166346Y0333600D03*
X0166346Y0323600D03*
X0166346Y0313600D03*
X0166346Y0303600D03*
X0166346Y0293600D03*
X0166346Y0283600D03*
X0166346Y0273600D03*
X0051346Y0378600D03*
X0041346Y0378600D03*
X0031346Y0378600D03*
X0121346Y0383600D03*
X0131346Y0383600D03*
X0021346Y0263600D03*
X0021346Y0253600D03*
X0277046Y0008900D03*
X0287046Y0008900D03*
X0352046Y0188900D03*
X0362046Y0188900D03*
D11*
X0342046Y0098900D03*
X0332046Y0098900D03*
X0322046Y0098900D03*
X0322046Y0088900D03*
X0332046Y0088900D03*
X0342046Y0088900D03*
X0341346Y0283600D03*
X0331346Y0283600D03*
X0321346Y0283600D03*
X0321346Y0293600D03*
X0331346Y0293600D03*
X0341346Y0293600D03*
D12*
X0239654Y0294348D03*
X0239654Y0286474D03*
X0239654Y0302222D03*
X0239654Y0310096D03*
X0239654Y0317970D03*
X0239654Y0325844D03*
X0239654Y0333718D03*
X0239654Y0341592D03*
X0239654Y0349466D03*
X0239654Y0357340D03*
X0153039Y0357340D03*
X0153039Y0349466D03*
X0153039Y0341592D03*
X0153039Y0333718D03*
X0153039Y0325844D03*
X0153039Y0317970D03*
X0153039Y0310096D03*
X0153039Y0302222D03*
X0153039Y0294348D03*
X0153039Y0286474D03*
X0153739Y0162640D03*
X0153739Y0154766D03*
X0153739Y0146892D03*
X0153739Y0139018D03*
X0153739Y0131144D03*
X0153739Y0123270D03*
X0153739Y0115396D03*
X0153739Y0107522D03*
X0153739Y0099648D03*
X0153739Y0091774D03*
X0240354Y0091774D03*
X0240354Y0099648D03*
X0240354Y0107522D03*
X0240354Y0115396D03*
X0240354Y0123270D03*
X0240354Y0131144D03*
X0240354Y0139018D03*
X0240354Y0146892D03*
X0240354Y0154766D03*
X0240354Y0162640D03*
D13*
X0112046Y0145150D03*
X0112046Y0092650D03*
X0052046Y0092650D03*
X0052046Y0145150D03*
X0051346Y0287350D03*
X0051346Y0339850D03*
X0111346Y0339850D03*
X0111346Y0287350D03*
D14*
X0093846Y0283600D03*
X0093846Y0263600D03*
X0068846Y0263600D03*
X0068846Y0283600D03*
X0121346Y0303600D03*
X0121346Y0313600D03*
X0121346Y0323600D03*
X0091346Y0353600D03*
X0081346Y0353600D03*
X0071346Y0353600D03*
X0072046Y0158900D03*
X0082046Y0158900D03*
X0092046Y0158900D03*
X0122046Y0128900D03*
X0122046Y0118900D03*
X0122046Y0108900D03*
X0094546Y0088900D03*
X0094546Y0068900D03*
X0069546Y0068900D03*
X0069546Y0088900D03*
D15*
X0030708Y0016420D03*
X0030708Y0031380D03*
X0030008Y0211120D03*
X0030008Y0226080D03*
D16*
X0251740Y0278757D03*
X0251740Y0298443D03*
X0300953Y0298443D03*
X0300953Y0278757D03*
X0306740Y0233443D03*
X0306740Y0213757D03*
X0355953Y0213757D03*
X0355953Y0233443D03*
X0354240Y0278757D03*
X0354240Y0298443D03*
X0350953Y0338757D03*
X0350953Y0358443D03*
X0301740Y0358443D03*
X0301740Y0338757D03*
X0403453Y0298443D03*
X0403453Y0278757D03*
X0351653Y0163743D03*
X0351653Y0144057D03*
X0354940Y0103743D03*
X0354940Y0084057D03*
X0356653Y0038743D03*
X0356653Y0019057D03*
X0307440Y0019057D03*
X0307440Y0038743D03*
X0301653Y0084057D03*
X0301653Y0103743D03*
X0302440Y0144057D03*
X0302440Y0163743D03*
X0252440Y0103743D03*
X0252440Y0084057D03*
X0404153Y0084057D03*
X0404153Y0103743D03*
D17*
X0397946Y0128900D03*
X0397046Y0140900D03*
X0367046Y0153900D03*
X0367046Y0173900D03*
X0342046Y0183900D03*
X0322046Y0178900D03*
X0326446Y0227500D03*
X0331346Y0238800D03*
X0341346Y0243600D03*
X0356346Y0243600D03*
X0356346Y0258600D03*
X0391346Y0258600D03*
X0381346Y0223600D03*
X0394546Y0173900D03*
X0367046Y0123900D03*
X0342046Y0123900D03*
X0357046Y0063900D03*
X0357046Y0048900D03*
X0342046Y0048900D03*
X0332046Y0044100D03*
X0327146Y0032800D03*
X0302046Y0063900D03*
X0277046Y0063900D03*
X0232246Y0064000D03*
X0227046Y0063900D03*
X0221746Y0064000D03*
X0062046Y0058900D03*
X0057046Y0063900D03*
X0047046Y0033900D03*
X0046346Y0228600D03*
X0061346Y0253600D03*
X0056346Y0258600D03*
X0221046Y0258700D03*
X0226346Y0258600D03*
X0231546Y0258700D03*
X0276346Y0258600D03*
X0301346Y0258600D03*
X0341346Y0318600D03*
X0366346Y0318600D03*
X0396346Y0335600D03*
X0397246Y0323600D03*
X0366346Y0348600D03*
X0366346Y0368600D03*
X0341346Y0378600D03*
X0321346Y0373600D03*
X0393846Y0368600D03*
X0392046Y0063900D03*
X0382046Y0028900D03*
M02*
