G75*
%MOIN*%
%OFA0B0*%
%FSLAX25Y25*%
%IPPOS*%
%LPD*%
%AMOC8*
5,1,8,0,0,1.08239X$1,22.5*
%
%ADD10R,0.05131X0.04737*%
%ADD11C,0.08200*%
%ADD12OC8,0.08200*%
%ADD13R,0.18910X0.04737*%
%ADD14R,0.14186X0.07099*%
%ADD15C,0.01421*%
%ADD16R,0.04737X0.05131*%
%ADD17R,0.06800X0.03800*%
%ADD18C,0.01684*%
%ADD19C,0.06800*%
%ADD20C,0.02572*%
%ADD21R,0.06040X0.13760*%
%ADD22C,0.09800*%
%ADD23C,0.07800*%
%ADD24R,0.05524X0.02965*%
%ADD25R,0.06312X0.02375*%
%ADD26C,0.04146*%
%ADD27R,0.06693X0.07874*%
%ADD28R,0.06693X0.10630*%
%ADD29C,0.09300*%
%ADD30C,0.03300*%
%ADD31C,0.05162*%
D10*
X0053700Y0018900D03*
X0060393Y0018900D03*
X0058700Y0008900D03*
X0065393Y0008900D03*
X0060393Y0028900D03*
X0053700Y0028900D03*
X0068700Y0038900D03*
X0075393Y0038900D03*
X0083700Y0038900D03*
X0090393Y0038900D03*
X0098700Y0038900D03*
X0105393Y0038900D03*
X0100393Y0008900D03*
X0093700Y0008900D03*
X0128700Y0008900D03*
X0135393Y0008900D03*
X0168700Y0013900D03*
X0175393Y0013900D03*
X0175393Y0028900D03*
X0168700Y0028900D03*
X0238700Y0008900D03*
X0245393Y0008900D03*
X0288700Y0063900D03*
X0295393Y0063900D03*
X0363700Y0008900D03*
X0370393Y0008900D03*
X0398700Y0063900D03*
X0405393Y0063900D03*
X0400393Y0148900D03*
X0393700Y0148900D03*
X0380393Y0148900D03*
X0373700Y0148900D03*
X0325393Y0188900D03*
X0318700Y0188900D03*
X0363000Y0203600D03*
X0369693Y0203600D03*
X0398000Y0258600D03*
X0404693Y0258600D03*
X0399693Y0343600D03*
X0393000Y0343600D03*
X0379693Y0343600D03*
X0373000Y0343600D03*
X0324693Y0383600D03*
X0318000Y0383600D03*
X0294693Y0258600D03*
X0288000Y0258600D03*
X0244693Y0203600D03*
X0238000Y0203600D03*
X0174693Y0208600D03*
X0168000Y0208600D03*
X0168000Y0223600D03*
X0174693Y0223600D03*
X0134693Y0203600D03*
X0128000Y0203600D03*
X0099693Y0203600D03*
X0093000Y0203600D03*
X0064693Y0203600D03*
X0058000Y0203600D03*
X0059693Y0213600D03*
X0053000Y0213600D03*
X0053000Y0223600D03*
X0059693Y0223600D03*
X0068000Y0233600D03*
X0074693Y0233600D03*
X0083000Y0233600D03*
X0089693Y0233600D03*
X0098000Y0233600D03*
X0104693Y0233600D03*
D11*
X0122046Y0188900D03*
X0132046Y0188900D03*
X0167046Y0168900D03*
X0167046Y0158900D03*
X0167046Y0148900D03*
X0167046Y0138900D03*
X0167046Y0128900D03*
X0167046Y0118900D03*
X0167046Y0108900D03*
X0167046Y0098900D03*
X0167046Y0088900D03*
X0167046Y0078900D03*
X0227046Y0078900D03*
X0227046Y0088900D03*
X0227046Y0098900D03*
X0227046Y0108900D03*
X0227046Y0118900D03*
X0227046Y0128900D03*
X0227046Y0138900D03*
X0227046Y0148900D03*
X0227046Y0158900D03*
X0227046Y0168900D03*
X0272046Y0188900D03*
X0282046Y0188900D03*
X0286346Y0203600D03*
X0276346Y0203600D03*
X0226346Y0273600D03*
X0226346Y0283600D03*
X0226346Y0293600D03*
X0226346Y0303600D03*
X0226346Y0313600D03*
X0226346Y0323600D03*
X0226346Y0333600D03*
X0226346Y0343600D03*
X0226346Y0353600D03*
X0226346Y0363600D03*
X0271346Y0383600D03*
X0281346Y0383600D03*
X0351346Y0383600D03*
X0361346Y0383600D03*
X0166346Y0363600D03*
X0166346Y0353600D03*
X0166346Y0343600D03*
X0166346Y0333600D03*
X0166346Y0323600D03*
X0166346Y0313600D03*
X0166346Y0303600D03*
X0166346Y0293600D03*
X0166346Y0283600D03*
X0166346Y0273600D03*
X0052046Y0183900D03*
X0042046Y0183900D03*
X0032046Y0183900D03*
X0021346Y0253600D03*
X0021346Y0263600D03*
X0031346Y0378600D03*
X0041346Y0378600D03*
X0051346Y0378600D03*
X0121346Y0383600D03*
X0131346Y0383600D03*
X0352046Y0188900D03*
X0362046Y0188900D03*
X0287046Y0008900D03*
X0277046Y0008900D03*
X0022046Y0058900D03*
X0022046Y0068900D03*
D12*
X0322046Y0088900D03*
X0322046Y0098900D03*
X0332046Y0098900D03*
X0342046Y0098900D03*
X0342046Y0088900D03*
X0332046Y0088900D03*
X0331346Y0283600D03*
X0341346Y0283600D03*
X0341346Y0293600D03*
X0331346Y0293600D03*
X0321346Y0293600D03*
X0321346Y0283600D03*
D13*
X0381780Y0364663D03*
X0381780Y0372537D03*
X0382480Y0177837D03*
X0382480Y0169963D03*
D14*
X0402952Y0160514D03*
X0402952Y0187286D03*
X0402252Y0355214D03*
X0402252Y0381986D03*
D15*
X0338141Y0381942D02*
X0338141Y0385258D01*
X0341457Y0385258D01*
X0341457Y0381942D01*
X0338141Y0381942D01*
X0338141Y0383362D02*
X0341457Y0383362D01*
X0341457Y0384782D02*
X0338141Y0384782D01*
X0331236Y0385258D02*
X0331236Y0381942D01*
X0331236Y0385258D02*
X0334552Y0385258D01*
X0334552Y0381942D01*
X0331236Y0381942D01*
X0331236Y0383362D02*
X0334552Y0383362D01*
X0334552Y0384782D02*
X0331236Y0384782D01*
X0298141Y0385258D02*
X0298141Y0381942D01*
X0298141Y0385258D02*
X0301457Y0385258D01*
X0301457Y0381942D01*
X0298141Y0381942D01*
X0298141Y0383362D02*
X0301457Y0383362D01*
X0301457Y0384782D02*
X0298141Y0384782D01*
X0291236Y0385258D02*
X0291236Y0381942D01*
X0291236Y0385258D02*
X0294552Y0385258D01*
X0294552Y0381942D01*
X0291236Y0381942D01*
X0291236Y0383362D02*
X0294552Y0383362D01*
X0294552Y0384782D02*
X0291236Y0384782D01*
X0261457Y0385258D02*
X0261457Y0381942D01*
X0258141Y0381942D01*
X0258141Y0385258D01*
X0261457Y0385258D01*
X0261457Y0383362D02*
X0258141Y0383362D01*
X0258141Y0384782D02*
X0261457Y0384782D01*
X0254552Y0385258D02*
X0254552Y0381942D01*
X0251236Y0381942D01*
X0251236Y0385258D01*
X0254552Y0385258D01*
X0254552Y0383362D02*
X0251236Y0383362D01*
X0251236Y0384782D02*
X0254552Y0384782D01*
X0148141Y0385258D02*
X0148141Y0381942D01*
X0148141Y0385258D02*
X0151457Y0385258D01*
X0151457Y0381942D01*
X0148141Y0381942D01*
X0148141Y0383362D02*
X0151457Y0383362D01*
X0151457Y0384782D02*
X0148141Y0384782D01*
X0141236Y0385258D02*
X0141236Y0381942D01*
X0141236Y0385258D02*
X0144552Y0385258D01*
X0144552Y0381942D01*
X0141236Y0381942D01*
X0141236Y0383362D02*
X0144552Y0383362D01*
X0144552Y0384782D02*
X0141236Y0384782D01*
X0111457Y0385258D02*
X0111457Y0381942D01*
X0108141Y0381942D01*
X0108141Y0385258D01*
X0111457Y0385258D01*
X0111457Y0383362D02*
X0108141Y0383362D01*
X0108141Y0384782D02*
X0111457Y0384782D01*
X0104552Y0385258D02*
X0104552Y0381942D01*
X0101236Y0381942D01*
X0101236Y0385258D01*
X0104552Y0385258D01*
X0104552Y0383362D02*
X0101236Y0383362D01*
X0101236Y0384782D02*
X0104552Y0384782D01*
X0111236Y0205258D02*
X0111236Y0201942D01*
X0111236Y0205258D02*
X0114552Y0205258D01*
X0114552Y0201942D01*
X0111236Y0201942D01*
X0111236Y0203362D02*
X0114552Y0203362D01*
X0114552Y0204782D02*
X0111236Y0204782D01*
X0118141Y0205258D02*
X0118141Y0201942D01*
X0118141Y0205258D02*
X0121457Y0205258D01*
X0121457Y0201942D01*
X0118141Y0201942D01*
X0118141Y0203362D02*
X0121457Y0203362D01*
X0121457Y0204782D02*
X0118141Y0204782D01*
X0112157Y0190558D02*
X0112157Y0187242D01*
X0108841Y0187242D01*
X0108841Y0190558D01*
X0112157Y0190558D01*
X0112157Y0188662D02*
X0108841Y0188662D01*
X0108841Y0190082D02*
X0112157Y0190082D01*
X0105252Y0190558D02*
X0105252Y0187242D01*
X0101936Y0187242D01*
X0101936Y0190558D01*
X0105252Y0190558D01*
X0105252Y0188662D02*
X0101936Y0188662D01*
X0101936Y0190082D02*
X0105252Y0190082D01*
X0083141Y0201942D02*
X0083141Y0205258D01*
X0086457Y0205258D01*
X0086457Y0201942D01*
X0083141Y0201942D01*
X0083141Y0203362D02*
X0086457Y0203362D01*
X0086457Y0204782D02*
X0083141Y0204782D01*
X0076236Y0205258D02*
X0076236Y0201942D01*
X0076236Y0205258D02*
X0079552Y0205258D01*
X0079552Y0201942D01*
X0076236Y0201942D01*
X0076236Y0203362D02*
X0079552Y0203362D01*
X0079552Y0204782D02*
X0076236Y0204782D01*
X0051457Y0205258D02*
X0051457Y0201942D01*
X0048141Y0201942D01*
X0048141Y0205258D01*
X0051457Y0205258D01*
X0051457Y0203362D02*
X0048141Y0203362D01*
X0048141Y0204782D02*
X0051457Y0204782D01*
X0044552Y0205258D02*
X0044552Y0201942D01*
X0041236Y0201942D01*
X0041236Y0205258D01*
X0044552Y0205258D01*
X0044552Y0203362D02*
X0041236Y0203362D01*
X0041236Y0204782D02*
X0044552Y0204782D01*
X0141936Y0190558D02*
X0141936Y0187242D01*
X0141936Y0190558D02*
X0145252Y0190558D01*
X0145252Y0187242D01*
X0141936Y0187242D01*
X0141936Y0188662D02*
X0145252Y0188662D01*
X0145252Y0190082D02*
X0141936Y0190082D01*
X0148841Y0190558D02*
X0148841Y0187242D01*
X0148841Y0190558D02*
X0152157Y0190558D01*
X0152157Y0187242D01*
X0148841Y0187242D01*
X0148841Y0188662D02*
X0152157Y0188662D01*
X0152157Y0190082D02*
X0148841Y0190082D01*
X0255252Y0190558D02*
X0255252Y0187242D01*
X0251936Y0187242D01*
X0251936Y0190558D01*
X0255252Y0190558D01*
X0255252Y0188662D02*
X0251936Y0188662D01*
X0251936Y0190082D02*
X0255252Y0190082D01*
X0262157Y0190558D02*
X0262157Y0187242D01*
X0258841Y0187242D01*
X0258841Y0190558D01*
X0262157Y0190558D01*
X0262157Y0188662D02*
X0258841Y0188662D01*
X0258841Y0190082D02*
X0262157Y0190082D01*
X0291936Y0190558D02*
X0291936Y0187242D01*
X0291936Y0190558D02*
X0295252Y0190558D01*
X0295252Y0187242D01*
X0291936Y0187242D01*
X0291936Y0188662D02*
X0295252Y0188662D01*
X0295252Y0190082D02*
X0291936Y0190082D01*
X0298841Y0190558D02*
X0298841Y0187242D01*
X0298841Y0190558D02*
X0302157Y0190558D01*
X0302157Y0187242D01*
X0298841Y0187242D01*
X0298841Y0188662D02*
X0302157Y0188662D01*
X0302157Y0190082D02*
X0298841Y0190082D01*
X0331936Y0190558D02*
X0331936Y0187242D01*
X0331936Y0190558D02*
X0335252Y0190558D01*
X0335252Y0187242D01*
X0331936Y0187242D01*
X0331936Y0188662D02*
X0335252Y0188662D01*
X0335252Y0190082D02*
X0331936Y0190082D01*
X0338841Y0190558D02*
X0338841Y0187242D01*
X0338841Y0190558D02*
X0342157Y0190558D01*
X0342157Y0187242D01*
X0338841Y0187242D01*
X0338841Y0188662D02*
X0342157Y0188662D01*
X0342157Y0190082D02*
X0338841Y0190082D01*
X0118841Y0010558D02*
X0118841Y0007242D01*
X0118841Y0010558D02*
X0122157Y0010558D01*
X0122157Y0007242D01*
X0118841Y0007242D01*
X0118841Y0008662D02*
X0122157Y0008662D01*
X0122157Y0010082D02*
X0118841Y0010082D01*
X0111936Y0010558D02*
X0111936Y0007242D01*
X0111936Y0010558D02*
X0115252Y0010558D01*
X0115252Y0007242D01*
X0111936Y0007242D01*
X0111936Y0008662D02*
X0115252Y0008662D01*
X0115252Y0010082D02*
X0111936Y0010082D01*
X0083841Y0010558D02*
X0083841Y0007242D01*
X0083841Y0010558D02*
X0087157Y0010558D01*
X0087157Y0007242D01*
X0083841Y0007242D01*
X0083841Y0008662D02*
X0087157Y0008662D01*
X0087157Y0010082D02*
X0083841Y0010082D01*
X0076936Y0010558D02*
X0076936Y0007242D01*
X0076936Y0010558D02*
X0080252Y0010558D01*
X0080252Y0007242D01*
X0076936Y0007242D01*
X0076936Y0008662D02*
X0080252Y0008662D01*
X0080252Y0010082D02*
X0076936Y0010082D01*
X0052157Y0010558D02*
X0052157Y0007242D01*
X0048841Y0007242D01*
X0048841Y0010558D01*
X0052157Y0010558D01*
X0052157Y0008662D02*
X0048841Y0008662D01*
X0048841Y0010082D02*
X0052157Y0010082D01*
X0045252Y0010558D02*
X0045252Y0007242D01*
X0041936Y0007242D01*
X0041936Y0010558D01*
X0045252Y0010558D01*
X0045252Y0008662D02*
X0041936Y0008662D01*
X0041936Y0010082D02*
X0045252Y0010082D01*
D16*
X0022046Y0140554D03*
X0022046Y0147246D03*
X0122046Y0165554D03*
X0122046Y0172246D03*
X0132046Y0172246D03*
X0132046Y0165554D03*
X0272046Y0165554D03*
X0272046Y0172246D03*
X0282046Y0172246D03*
X0282046Y0165554D03*
X0357046Y0132246D03*
X0357046Y0125554D03*
X0407046Y0130554D03*
X0407046Y0137246D03*
X0366346Y0215254D03*
X0366346Y0221946D03*
X0356346Y0320254D03*
X0356346Y0326946D03*
X0406346Y0325254D03*
X0406346Y0331946D03*
X0281346Y0360254D03*
X0281346Y0366946D03*
X0271346Y0366946D03*
X0271346Y0360254D03*
X0131346Y0360254D03*
X0131346Y0366946D03*
X0121346Y0366946D03*
X0121346Y0360254D03*
X0021346Y0341946D03*
X0021346Y0335254D03*
X0367046Y0027246D03*
X0367046Y0020554D03*
D17*
X0381046Y0021400D03*
X0381046Y0006400D03*
X0403046Y0006400D03*
X0403046Y0021400D03*
X0402346Y0201100D03*
X0402346Y0216100D03*
X0380346Y0216100D03*
X0380346Y0201100D03*
D18*
X0220615Y0213776D02*
X0218349Y0213776D01*
X0218349Y0214072D01*
X0220615Y0214072D01*
X0220615Y0213776D01*
X0220615Y0215744D02*
X0218349Y0215744D01*
X0218349Y0216040D01*
X0220615Y0216040D01*
X0220615Y0215744D01*
X0220615Y0217630D02*
X0218349Y0217630D01*
X0218349Y0217926D01*
X0220615Y0217926D01*
X0220615Y0217630D01*
X0220615Y0219598D02*
X0218349Y0219598D01*
X0218349Y0219894D01*
X0220615Y0219894D01*
X0220615Y0219598D01*
X0220615Y0221483D02*
X0218349Y0221483D01*
X0218349Y0221779D01*
X0220615Y0221779D01*
X0220615Y0221483D01*
X0220615Y0223452D02*
X0218349Y0223452D01*
X0218349Y0223748D01*
X0220615Y0223748D01*
X0220615Y0223452D01*
X0220615Y0225717D02*
X0218349Y0225717D01*
X0220615Y0225717D02*
X0220615Y0225421D01*
X0218349Y0225421D01*
X0218349Y0225717D01*
X0218349Y0227602D02*
X0220615Y0227602D01*
X0220615Y0227306D01*
X0218349Y0227306D01*
X0218349Y0227602D01*
X0218349Y0229570D02*
X0220615Y0229570D01*
X0220615Y0229274D01*
X0218349Y0229274D01*
X0218349Y0229570D01*
X0218349Y0231456D02*
X0220615Y0231456D01*
X0220615Y0231160D01*
X0218349Y0231160D01*
X0218349Y0231456D01*
X0218349Y0233424D02*
X0220615Y0233424D01*
X0220615Y0233128D01*
X0218349Y0233128D01*
X0218349Y0233424D01*
X0216171Y0235603D02*
X0216171Y0237869D01*
X0216171Y0235603D02*
X0215875Y0235603D01*
X0215875Y0237869D01*
X0216171Y0237869D01*
X0216171Y0237286D02*
X0215875Y0237286D01*
X0214202Y0237869D02*
X0214202Y0235603D01*
X0213906Y0235603D01*
X0213906Y0237869D01*
X0214202Y0237869D01*
X0214202Y0237286D02*
X0213906Y0237286D01*
X0212317Y0237869D02*
X0212317Y0235603D01*
X0212021Y0235603D01*
X0212021Y0237869D01*
X0212317Y0237869D01*
X0212317Y0237286D02*
X0212021Y0237286D01*
X0210348Y0237869D02*
X0210348Y0235603D01*
X0210052Y0235603D01*
X0210052Y0237869D01*
X0210348Y0237869D01*
X0210348Y0237286D02*
X0210052Y0237286D01*
X0208463Y0237869D02*
X0208463Y0235603D01*
X0208167Y0235603D01*
X0208167Y0237869D01*
X0208463Y0237869D01*
X0208463Y0237286D02*
X0208167Y0237286D01*
X0206494Y0237869D02*
X0206494Y0235603D01*
X0206198Y0235603D01*
X0206198Y0237869D01*
X0206494Y0237869D01*
X0206494Y0237286D02*
X0206198Y0237286D01*
X0204230Y0237869D02*
X0204230Y0235603D01*
X0204230Y0237869D02*
X0204526Y0237869D01*
X0204526Y0235603D01*
X0204230Y0235603D01*
X0204230Y0237286D02*
X0204526Y0237286D01*
X0202345Y0237869D02*
X0202345Y0235603D01*
X0202345Y0237869D02*
X0202641Y0237869D01*
X0202641Y0235603D01*
X0202345Y0235603D01*
X0202345Y0237286D02*
X0202641Y0237286D01*
X0200376Y0237869D02*
X0200376Y0235603D01*
X0200376Y0237869D02*
X0200672Y0237869D01*
X0200672Y0235603D01*
X0200376Y0235603D01*
X0200376Y0237286D02*
X0200672Y0237286D01*
X0198491Y0237869D02*
X0198491Y0235603D01*
X0198491Y0237869D02*
X0198787Y0237869D01*
X0198787Y0235603D01*
X0198491Y0235603D01*
X0198491Y0237286D02*
X0198787Y0237286D01*
X0196522Y0237869D02*
X0196522Y0235603D01*
X0196522Y0237869D02*
X0196818Y0237869D01*
X0196818Y0235603D01*
X0196522Y0235603D01*
X0196522Y0237286D02*
X0196818Y0237286D01*
X0194344Y0233424D02*
X0192078Y0233424D01*
X0194344Y0233424D02*
X0194344Y0233128D01*
X0192078Y0233128D01*
X0192078Y0233424D01*
X0192078Y0231456D02*
X0194344Y0231456D01*
X0194344Y0231160D01*
X0192078Y0231160D01*
X0192078Y0231456D01*
X0192078Y0229570D02*
X0194344Y0229570D01*
X0194344Y0229274D01*
X0192078Y0229274D01*
X0192078Y0229570D01*
X0192078Y0227602D02*
X0194344Y0227602D01*
X0194344Y0227306D01*
X0192078Y0227306D01*
X0192078Y0227602D01*
X0192078Y0225717D02*
X0194344Y0225717D01*
X0194344Y0225421D01*
X0192078Y0225421D01*
X0192078Y0225717D01*
X0192078Y0223748D02*
X0194344Y0223748D01*
X0194344Y0223452D01*
X0192078Y0223452D01*
X0192078Y0223748D01*
X0192078Y0221483D02*
X0194344Y0221483D01*
X0192078Y0221483D02*
X0192078Y0221779D01*
X0194344Y0221779D01*
X0194344Y0221483D01*
X0194344Y0219598D02*
X0192078Y0219598D01*
X0192078Y0219894D01*
X0194344Y0219894D01*
X0194344Y0219598D01*
X0194344Y0217630D02*
X0192078Y0217630D01*
X0192078Y0217926D01*
X0194344Y0217926D01*
X0194344Y0217630D01*
X0194344Y0215744D02*
X0192078Y0215744D01*
X0192078Y0216040D01*
X0194344Y0216040D01*
X0194344Y0215744D01*
X0194344Y0213776D02*
X0192078Y0213776D01*
X0192078Y0214072D01*
X0194344Y0214072D01*
X0194344Y0213776D01*
X0196522Y0211597D02*
X0196522Y0209331D01*
X0196522Y0211597D02*
X0196818Y0211597D01*
X0196818Y0209331D01*
X0196522Y0209331D01*
X0196522Y0211014D02*
X0196818Y0211014D01*
X0198491Y0211597D02*
X0198491Y0209331D01*
X0198491Y0211597D02*
X0198787Y0211597D01*
X0198787Y0209331D01*
X0198491Y0209331D01*
X0198491Y0211014D02*
X0198787Y0211014D01*
X0200376Y0211597D02*
X0200376Y0209331D01*
X0200376Y0211597D02*
X0200672Y0211597D01*
X0200672Y0209331D01*
X0200376Y0209331D01*
X0200376Y0211014D02*
X0200672Y0211014D01*
X0202345Y0211597D02*
X0202345Y0209331D01*
X0202345Y0211597D02*
X0202641Y0211597D01*
X0202641Y0209331D01*
X0202345Y0209331D01*
X0202345Y0211014D02*
X0202641Y0211014D01*
X0204230Y0211597D02*
X0204230Y0209331D01*
X0204230Y0211597D02*
X0204526Y0211597D01*
X0204526Y0209331D01*
X0204230Y0209331D01*
X0204230Y0211014D02*
X0204526Y0211014D01*
X0206198Y0211597D02*
X0206198Y0209331D01*
X0206198Y0211597D02*
X0206494Y0211597D01*
X0206494Y0209331D01*
X0206198Y0209331D01*
X0206198Y0211014D02*
X0206494Y0211014D01*
X0208463Y0211597D02*
X0208463Y0209331D01*
X0208167Y0209331D01*
X0208167Y0211597D01*
X0208463Y0211597D01*
X0208463Y0211014D02*
X0208167Y0211014D01*
X0210348Y0211597D02*
X0210348Y0209331D01*
X0210052Y0209331D01*
X0210052Y0211597D01*
X0210348Y0211597D01*
X0210348Y0211014D02*
X0210052Y0211014D01*
X0212317Y0211597D02*
X0212317Y0209331D01*
X0212021Y0209331D01*
X0212021Y0211597D01*
X0212317Y0211597D01*
X0212317Y0211014D02*
X0212021Y0211014D01*
X0214202Y0211597D02*
X0214202Y0209331D01*
X0213906Y0209331D01*
X0213906Y0211597D01*
X0214202Y0211597D01*
X0214202Y0211014D02*
X0213906Y0211014D01*
X0216171Y0211597D02*
X0216171Y0209331D01*
X0215875Y0209331D01*
X0215875Y0211597D01*
X0216171Y0211597D01*
X0216171Y0211014D02*
X0215875Y0211014D01*
X0216871Y0043169D02*
X0216871Y0040903D01*
X0216575Y0040903D01*
X0216575Y0043169D01*
X0216871Y0043169D01*
X0216871Y0042586D02*
X0216575Y0042586D01*
X0214902Y0043169D02*
X0214902Y0040903D01*
X0214606Y0040903D01*
X0214606Y0043169D01*
X0214902Y0043169D01*
X0214902Y0042586D02*
X0214606Y0042586D01*
X0213017Y0043169D02*
X0213017Y0040903D01*
X0212721Y0040903D01*
X0212721Y0043169D01*
X0213017Y0043169D01*
X0213017Y0042586D02*
X0212721Y0042586D01*
X0211048Y0043169D02*
X0211048Y0040903D01*
X0210752Y0040903D01*
X0210752Y0043169D01*
X0211048Y0043169D01*
X0211048Y0042586D02*
X0210752Y0042586D01*
X0209163Y0043169D02*
X0209163Y0040903D01*
X0208867Y0040903D01*
X0208867Y0043169D01*
X0209163Y0043169D01*
X0209163Y0042586D02*
X0208867Y0042586D01*
X0207194Y0043169D02*
X0207194Y0040903D01*
X0206898Y0040903D01*
X0206898Y0043169D01*
X0207194Y0043169D01*
X0207194Y0042586D02*
X0206898Y0042586D01*
X0204930Y0043169D02*
X0204930Y0040903D01*
X0204930Y0043169D02*
X0205226Y0043169D01*
X0205226Y0040903D01*
X0204930Y0040903D01*
X0204930Y0042586D02*
X0205226Y0042586D01*
X0203045Y0043169D02*
X0203045Y0040903D01*
X0203045Y0043169D02*
X0203341Y0043169D01*
X0203341Y0040903D01*
X0203045Y0040903D01*
X0203045Y0042586D02*
X0203341Y0042586D01*
X0201076Y0043169D02*
X0201076Y0040903D01*
X0201076Y0043169D02*
X0201372Y0043169D01*
X0201372Y0040903D01*
X0201076Y0040903D01*
X0201076Y0042586D02*
X0201372Y0042586D01*
X0199191Y0043169D02*
X0199191Y0040903D01*
X0199191Y0043169D02*
X0199487Y0043169D01*
X0199487Y0040903D01*
X0199191Y0040903D01*
X0199191Y0042586D02*
X0199487Y0042586D01*
X0197222Y0043169D02*
X0197222Y0040903D01*
X0197222Y0043169D02*
X0197518Y0043169D01*
X0197518Y0040903D01*
X0197222Y0040903D01*
X0197222Y0042586D02*
X0197518Y0042586D01*
X0195044Y0038724D02*
X0192778Y0038724D01*
X0195044Y0038724D02*
X0195044Y0038428D01*
X0192778Y0038428D01*
X0192778Y0038724D01*
X0192778Y0036756D02*
X0195044Y0036756D01*
X0195044Y0036460D01*
X0192778Y0036460D01*
X0192778Y0036756D01*
X0192778Y0034870D02*
X0195044Y0034870D01*
X0195044Y0034574D01*
X0192778Y0034574D01*
X0192778Y0034870D01*
X0192778Y0032902D02*
X0195044Y0032902D01*
X0195044Y0032606D01*
X0192778Y0032606D01*
X0192778Y0032902D01*
X0192778Y0031017D02*
X0195044Y0031017D01*
X0195044Y0030721D01*
X0192778Y0030721D01*
X0192778Y0031017D01*
X0192778Y0029048D02*
X0195044Y0029048D01*
X0195044Y0028752D01*
X0192778Y0028752D01*
X0192778Y0029048D01*
X0192778Y0026783D02*
X0195044Y0026783D01*
X0192778Y0026783D02*
X0192778Y0027079D01*
X0195044Y0027079D01*
X0195044Y0026783D01*
X0195044Y0024898D02*
X0192778Y0024898D01*
X0192778Y0025194D01*
X0195044Y0025194D01*
X0195044Y0024898D01*
X0195044Y0022930D02*
X0192778Y0022930D01*
X0192778Y0023226D01*
X0195044Y0023226D01*
X0195044Y0022930D01*
X0195044Y0021044D02*
X0192778Y0021044D01*
X0192778Y0021340D01*
X0195044Y0021340D01*
X0195044Y0021044D01*
X0195044Y0019076D02*
X0192778Y0019076D01*
X0192778Y0019372D01*
X0195044Y0019372D01*
X0195044Y0019076D01*
X0197222Y0016897D02*
X0197222Y0014631D01*
X0197222Y0016897D02*
X0197518Y0016897D01*
X0197518Y0014631D01*
X0197222Y0014631D01*
X0197222Y0016314D02*
X0197518Y0016314D01*
X0199191Y0016897D02*
X0199191Y0014631D01*
X0199191Y0016897D02*
X0199487Y0016897D01*
X0199487Y0014631D01*
X0199191Y0014631D01*
X0199191Y0016314D02*
X0199487Y0016314D01*
X0201076Y0016897D02*
X0201076Y0014631D01*
X0201076Y0016897D02*
X0201372Y0016897D01*
X0201372Y0014631D01*
X0201076Y0014631D01*
X0201076Y0016314D02*
X0201372Y0016314D01*
X0203045Y0016897D02*
X0203045Y0014631D01*
X0203045Y0016897D02*
X0203341Y0016897D01*
X0203341Y0014631D01*
X0203045Y0014631D01*
X0203045Y0016314D02*
X0203341Y0016314D01*
X0204930Y0016897D02*
X0204930Y0014631D01*
X0204930Y0016897D02*
X0205226Y0016897D01*
X0205226Y0014631D01*
X0204930Y0014631D01*
X0204930Y0016314D02*
X0205226Y0016314D01*
X0206898Y0016897D02*
X0206898Y0014631D01*
X0206898Y0016897D02*
X0207194Y0016897D01*
X0207194Y0014631D01*
X0206898Y0014631D01*
X0206898Y0016314D02*
X0207194Y0016314D01*
X0209163Y0016897D02*
X0209163Y0014631D01*
X0208867Y0014631D01*
X0208867Y0016897D01*
X0209163Y0016897D01*
X0209163Y0016314D02*
X0208867Y0016314D01*
X0211048Y0016897D02*
X0211048Y0014631D01*
X0210752Y0014631D01*
X0210752Y0016897D01*
X0211048Y0016897D01*
X0211048Y0016314D02*
X0210752Y0016314D01*
X0213017Y0016897D02*
X0213017Y0014631D01*
X0212721Y0014631D01*
X0212721Y0016897D01*
X0213017Y0016897D01*
X0213017Y0016314D02*
X0212721Y0016314D01*
X0214902Y0016897D02*
X0214902Y0014631D01*
X0214606Y0014631D01*
X0214606Y0016897D01*
X0214902Y0016897D01*
X0214902Y0016314D02*
X0214606Y0016314D01*
X0216871Y0016897D02*
X0216871Y0014631D01*
X0216575Y0014631D01*
X0216575Y0016897D01*
X0216871Y0016897D01*
X0216871Y0016314D02*
X0216575Y0016314D01*
X0219049Y0019076D02*
X0221315Y0019076D01*
X0219049Y0019076D02*
X0219049Y0019372D01*
X0221315Y0019372D01*
X0221315Y0019076D01*
X0221315Y0021044D02*
X0219049Y0021044D01*
X0219049Y0021340D01*
X0221315Y0021340D01*
X0221315Y0021044D01*
X0221315Y0022930D02*
X0219049Y0022930D01*
X0219049Y0023226D01*
X0221315Y0023226D01*
X0221315Y0022930D01*
X0221315Y0024898D02*
X0219049Y0024898D01*
X0219049Y0025194D01*
X0221315Y0025194D01*
X0221315Y0024898D01*
X0221315Y0026783D02*
X0219049Y0026783D01*
X0219049Y0027079D01*
X0221315Y0027079D01*
X0221315Y0026783D01*
X0221315Y0028752D02*
X0219049Y0028752D01*
X0219049Y0029048D01*
X0221315Y0029048D01*
X0221315Y0028752D01*
X0221315Y0031017D02*
X0219049Y0031017D01*
X0221315Y0031017D02*
X0221315Y0030721D01*
X0219049Y0030721D01*
X0219049Y0031017D01*
X0219049Y0032902D02*
X0221315Y0032902D01*
X0221315Y0032606D01*
X0219049Y0032606D01*
X0219049Y0032902D01*
X0219049Y0034870D02*
X0221315Y0034870D01*
X0221315Y0034574D01*
X0219049Y0034574D01*
X0219049Y0034870D01*
X0219049Y0036756D02*
X0221315Y0036756D01*
X0221315Y0036460D01*
X0219049Y0036460D01*
X0219049Y0036756D01*
X0219049Y0038724D02*
X0221315Y0038724D01*
X0221315Y0038428D01*
X0219049Y0038428D01*
X0219049Y0038724D01*
D19*
X0240354Y0091774D03*
X0240354Y0099648D03*
X0240354Y0107522D03*
X0240354Y0115396D03*
X0240354Y0123270D03*
X0240354Y0131144D03*
X0240354Y0139018D03*
X0240354Y0146892D03*
X0240354Y0154766D03*
X0240354Y0162640D03*
X0153739Y0162640D03*
X0153739Y0154766D03*
X0153739Y0146892D03*
X0153739Y0139018D03*
X0153739Y0131144D03*
X0153739Y0123270D03*
X0153739Y0115396D03*
X0153739Y0107522D03*
X0153739Y0099648D03*
X0153739Y0091774D03*
X0153039Y0286474D03*
X0153039Y0294348D03*
X0153039Y0302222D03*
X0153039Y0310096D03*
X0153039Y0317970D03*
X0153039Y0325844D03*
X0153039Y0333718D03*
X0153039Y0341592D03*
X0153039Y0349466D03*
X0153039Y0357340D03*
X0239654Y0357340D03*
X0239654Y0349466D03*
X0239654Y0341592D03*
X0239654Y0333718D03*
X0239654Y0325844D03*
X0239654Y0317970D03*
X0239654Y0310096D03*
X0239654Y0302222D03*
X0239654Y0294348D03*
X0239654Y0286474D03*
D20*
X0238882Y0233124D02*
X0244610Y0233124D01*
X0244610Y0228400D02*
X0238882Y0228400D01*
X0238882Y0223676D02*
X0244610Y0223676D01*
X0245310Y0038424D02*
X0239582Y0038424D01*
X0239582Y0033700D02*
X0245310Y0033700D01*
X0245310Y0028976D02*
X0239582Y0028976D01*
D21*
X0242436Y0033710D03*
X0241736Y0228410D03*
D22*
X0112046Y0145150D03*
X0112046Y0092650D03*
X0052046Y0092650D03*
X0052046Y0145150D03*
X0051346Y0287350D03*
X0051346Y0339850D03*
X0111346Y0339850D03*
X0111346Y0287350D03*
D23*
X0093846Y0283600D03*
X0093846Y0263600D03*
X0068846Y0263600D03*
X0068846Y0283600D03*
X0121346Y0303600D03*
X0121346Y0313600D03*
X0121346Y0323600D03*
X0091346Y0353600D03*
X0081346Y0353600D03*
X0071346Y0353600D03*
X0072046Y0158900D03*
X0082046Y0158900D03*
X0092046Y0158900D03*
X0122046Y0128900D03*
X0122046Y0118900D03*
X0122046Y0108900D03*
X0094546Y0088900D03*
X0094546Y0068900D03*
X0069546Y0068900D03*
X0069546Y0088900D03*
D24*
X0076928Y0027640D03*
X0076928Y0020160D03*
X0087165Y0020160D03*
X0087165Y0023900D03*
X0087165Y0027640D03*
X0086465Y0214860D03*
X0086465Y0218600D03*
X0086465Y0222340D03*
X0076228Y0222340D03*
X0076228Y0214860D03*
X0381928Y0137640D03*
X0381928Y0130160D03*
X0392165Y0130160D03*
X0392165Y0133900D03*
X0392165Y0137640D03*
X0391465Y0324860D03*
X0391465Y0328600D03*
X0391465Y0332340D03*
X0381228Y0332340D03*
X0381228Y0324860D03*
D25*
X0031976Y0223718D03*
X0031976Y0221159D03*
X0031976Y0218600D03*
X0031976Y0216041D03*
X0031976Y0213482D03*
X0032676Y0029018D03*
X0032676Y0026459D03*
X0032676Y0023900D03*
X0032676Y0021341D03*
X0032676Y0018782D03*
D26*
X0030708Y0016420D03*
X0030708Y0031380D03*
X0030008Y0211120D03*
X0030008Y0226080D03*
D27*
X0022046Y0009396D03*
X0022046Y0038404D03*
X0021346Y0204096D03*
X0021346Y0233104D03*
D28*
X0021346Y0218600D03*
X0022046Y0023900D03*
D29*
X0252440Y0084057D03*
X0252440Y0103743D03*
X0301653Y0103743D03*
X0301653Y0084057D03*
X0307440Y0038743D03*
X0307440Y0019057D03*
X0356653Y0019057D03*
X0356653Y0038743D03*
X0354940Y0084057D03*
X0354940Y0103743D03*
X0351653Y0144057D03*
X0351653Y0163743D03*
X0302440Y0163743D03*
X0302440Y0144057D03*
X0306740Y0213757D03*
X0306740Y0233443D03*
X0300953Y0278757D03*
X0300953Y0298443D03*
X0301740Y0338757D03*
X0301740Y0358443D03*
X0350953Y0358443D03*
X0350953Y0338757D03*
X0354240Y0298443D03*
X0354240Y0278757D03*
X0355953Y0233443D03*
X0355953Y0213757D03*
X0403453Y0278757D03*
X0403453Y0298443D03*
X0251740Y0298443D03*
X0251740Y0278757D03*
X0404153Y0103743D03*
X0404153Y0084057D03*
D30*
X0310046Y0188700D03*
X0309346Y0383400D03*
X0048546Y0238400D03*
X0049246Y0043700D03*
D31*
X0047046Y0033900D03*
X0062046Y0058900D03*
X0057046Y0063900D03*
X0221746Y0064000D03*
X0227046Y0063900D03*
X0232246Y0064000D03*
X0277046Y0063900D03*
X0302046Y0063900D03*
X0332046Y0044100D03*
X0342046Y0048900D03*
X0357046Y0048900D03*
X0357046Y0063900D03*
X0392046Y0063900D03*
X0382046Y0028900D03*
X0327146Y0032800D03*
X0342046Y0123900D03*
X0367046Y0123900D03*
X0367046Y0153900D03*
X0367046Y0173900D03*
X0342046Y0183900D03*
X0322046Y0178900D03*
X0326446Y0227500D03*
X0331346Y0238800D03*
X0341346Y0243600D03*
X0356346Y0243600D03*
X0356346Y0258600D03*
X0391346Y0258600D03*
X0381346Y0223600D03*
X0394546Y0173900D03*
X0397046Y0140900D03*
X0397946Y0128900D03*
X0301346Y0258600D03*
X0276346Y0258600D03*
X0231546Y0258700D03*
X0226346Y0258600D03*
X0221046Y0258700D03*
X0341346Y0318600D03*
X0366346Y0318600D03*
X0396346Y0335600D03*
X0397246Y0323600D03*
X0366346Y0348600D03*
X0366346Y0368600D03*
X0341346Y0378600D03*
X0321346Y0373600D03*
X0393846Y0368600D03*
X0061346Y0253600D03*
X0056346Y0258600D03*
X0046346Y0228600D03*
M02*
